<svg xmlns="http://www.w3.org/2000/svg" width="48" height="48"
     viewBox="0 0 24 24" fill="none"
     stroke="#8b5cf6" stroke-width="1.5"
     stroke-linecap="round" stroke-linejoin="round">
  <!-- outer ring -->
  <circle cx="12" cy="12" r="9"/>
  <!-- inner hub -->
  <circle cx="12" cy="12" r="2"/>
  <!-- 8 spokes -->
  <line x1="12" y1="3"  x2="12" y2="10"/>
  <line x1="12" y1="14" x2="12" y2="21"/>
  <line x1="3"  y1="12" x2="10" y2="12"/>
  <line x1="14" y1="12" x2="21" y2="12"/>
  <line x1="5.64" y1="5.64" x2="9.17" y2="9.17"/>
  <line x1="14.83" y1="14.83" x2="18.36" y2="18.36"/>
  <line x1="18.36" y1="5.64" x2="14.83" y2="9.17"/>
  <line x1="9.17" y1="14.83" x2="5.64" y2="18.36"/>
  <!-- 8 handle knobs -->
  <circle cx="12" cy="3" r="1"/>
  <circle cx="12" cy="21" r="1"/>
  <circle cx="3" cy="12" r="1"/>
  <circle cx="21" cy="12" r="1"/>
  <circle cx="5.64" cy="5.64" r="1"/>
  <circle cx="18.36" cy="18.36" r="1"/>
  <circle cx="18.36" cy="5.64" r="1"/>
  <circle cx="5.64" cy="18.36" r="1"/>
</svg>
